<svg width="24" height="24" viewBox="0 0 24 24" fill="none" xmlns="http://www.w3.org/2000/svg">
<path d="M11.9986 15.2713C12.184 15.2713 12.3396 15.2085 12.4653 15.0828C12.5905 14.9576 12.6531 14.8022 12.6531 14.6168V12.6531H14.6331C14.8186 12.6531 14.9713 12.5903 15.0913 12.4646C15.2113 12.3394 15.2713 12.184 15.2713 11.9986C15.2713 11.8131 15.2085 11.6576 15.0828 11.5319C14.9576 11.4067 14.8022 11.344 14.6168 11.344H12.6531V9.36403C12.6531 9.17858 12.5905 9.02585 12.4653 8.90585C12.3396 8.78585 12.184 8.72585 11.9986 8.72585C11.8131 8.72585 11.6578 8.78847 11.5325 8.91371C11.4069 9.03938 11.344 9.19494 11.344 9.3804V11.344H9.36403C9.17858 11.344 9.02585 11.4067 8.90585 11.5319C8.78585 11.6576 8.72585 11.8131 8.72585 11.9986C8.72585 12.184 8.78847 12.3394 8.91371 12.4646C9.03938 12.5903 9.19494 12.6531 9.3804 12.6531H11.344V14.6331C11.344 14.8186 11.4069 14.9713 11.5325 15.0913C11.6578 15.2113 11.8131 15.2713 11.9986 15.2713ZM11.9986 18.544C11.0931 18.544 10.2422 18.3721 9.44585 18.0283C8.64949 17.6848 7.95676 17.2186 7.36767 16.6295C6.77858 16.0404 6.31233 15.3477 5.96891 14.5513C5.62505 13.7549 5.45312 12.904 5.45312 11.9986C5.45312 11.0931 5.62505 10.2422 5.96891 9.44585C6.31233 8.64949 6.77858 7.95676 7.36767 7.36767C7.95676 6.77858 8.64949 6.31211 9.44585 5.96825C10.2422 5.62483 11.0931 5.45312 11.9986 5.45312C12.904 5.45312 13.7549 5.62483 14.5513 5.96825C15.3477 6.31211 16.0404 6.77858 16.6295 7.36767C17.2186 7.95676 17.6848 8.64949 18.0283 9.44585C18.3721 10.2422 18.544 11.0931 18.544 11.9986C18.544 12.904 18.3721 13.7549 18.0283 14.5513C17.6848 15.3477 17.2186 16.0404 16.6295 16.6295C16.0404 17.2186 15.3477 17.6848 14.5513 18.0283C13.7549 18.3721 12.904 18.544 11.9986 18.544ZM11.9986 17.2349C13.4495 17.2349 14.6851 16.7251 15.7053 15.7053C16.7251 14.6851 17.2349 13.4495 17.2349 11.9986C17.2349 10.5477 16.7251 9.31211 15.7053 8.29189C14.6851 7.27211 13.4495 6.76222 11.9986 6.76222C10.5477 6.76222 9.31232 7.27211 8.29254 8.29189C7.27232 9.31211 6.76222 10.5477 6.76222 11.9986C6.76222 13.4495 7.27232 14.6851 8.29254 15.7053C9.31232 16.7251 10.5477 17.2349 11.9986 17.2349Z" fill="#FFFFF9"/>
</svg>
