<svg width="40" height="41" viewBox="0 0 40 41" fill="none" xmlns="http://www.w3.org/2000/svg">
<rect y="0.190002" width="40" height="40" rx="10" fill="#8B8476" fill-opacity="0.1"/>
<path d="M15.5 11.44C14.4688 11.44 13.5859 11.8072 12.8516 12.5416C12.1172 13.2759 11.75 14.1588 11.75 15.19C11.75 16.2213 12.1172 17.1041 12.8516 17.8384C13.5859 18.5728 14.4688 18.94 15.5 18.94C16.5312 18.94 17.4141 18.5728 18.1484 17.8384C18.8828 17.1041 19.25 16.2213 19.25 15.19C19.25 14.1588 18.8828 13.2759 18.1484 12.5416C17.4141 11.8072 16.5312 11.44 15.5 11.44ZM15.5 17.44C14.875 17.44 14.3438 17.2213 13.9062 16.7838C13.4688 16.3463 13.25 15.815 13.25 15.19C13.25 14.565 13.4688 14.0338 13.9062 13.5963C14.3438 13.1588 14.875 12.94 15.5 12.94C16.125 12.94 16.6562 13.1588 17.0938 13.5963C17.5312 14.0338 17.75 14.565 17.75 15.19C17.75 15.815 17.5312 16.3463 17.0938 16.7838C16.6562 17.2213 16.125 17.44 15.5 17.44ZM24.5 18.94C25.5312 18.94 26.4141 18.5728 27.1484 17.8384C27.8828 17.1041 28.25 16.2213 28.25 15.19C28.25 14.1588 27.8828 13.2759 27.1484 12.5416C26.4141 11.8072 25.5312 11.44 24.5 11.44C23.4688 11.44 22.5859 11.8072 21.8516 12.5416C21.1172 13.2759 20.75 14.1588 20.75 15.19C20.75 16.2213 21.1172 17.1041 21.8516 17.8384C22.5859 18.5728 23.4688 18.94 24.5 18.94ZM24.5 12.94C25.125 12.94 25.6562 13.1588 26.0938 13.5963C26.5312 14.0338 26.75 14.565 26.75 15.19C26.75 15.815 26.5312 16.3463 26.0938 16.7838C25.6562 17.2213 25.125 17.44 24.5 17.44C23.875 17.44 23.3438 17.2213 22.9062 16.7838C22.4688 16.3463 22.25 15.815 22.25 15.19C22.25 14.565 22.4688 14.0338 22.9062 13.5963C23.3438 13.1588 23.875 12.94 24.5 12.94ZM15.5 20.44C14.4688 20.44 13.5859 20.8072 12.8516 21.5416C12.1172 22.2759 11.75 23.1588 11.75 24.19C11.75 25.2213 12.1172 26.1041 12.8516 26.8384C13.5859 27.5728 14.4688 27.94 15.5 27.94C16.5312 27.94 17.4141 27.5728 18.1484 26.8384C18.8828 26.1041 19.25 25.2213 19.25 24.19C19.25 23.1588 18.8828 22.2759 18.1484 21.5416C17.4141 20.8072 16.5312 20.44 15.5 20.44ZM15.5 26.44C14.875 26.44 14.3438 26.2213 13.9062 25.7838C13.4688 25.3463 13.25 24.815 13.25 24.19C13.25 23.565 13.4688 23.0338 13.9062 22.5963C14.3438 22.1588 14.875 21.94 15.5 21.94C16.125 21.94 16.6562 22.1588 17.0938 22.5963C17.5312 23.0338 17.75 23.565 17.75 24.19C17.75 24.815 17.5312 25.3463 17.0938 25.7838C16.6562 26.2213 16.125 26.44 15.5 26.44ZM24.5 20.44C23.4688 20.44 22.5859 20.8072 21.8516 21.5416C21.1172 22.2759 20.75 23.1588 20.75 24.19C20.75 25.2213 21.1172 26.1041 21.8516 26.8384C22.5859 27.5728 23.4688 27.94 24.5 27.94C25.5312 27.94 26.4141 27.5728 27.1484 26.8384C27.8828 26.1041 28.25 25.2213 28.25 24.19C28.25 23.1588 27.8828 22.2759 27.1484 21.5416C26.4141 20.8072 25.5312 20.44 24.5 20.44ZM24.5 26.44C23.875 26.44 23.3438 26.2213 22.9062 25.7838C22.4688 25.3463 22.25 24.815 22.25 24.19C22.25 23.565 22.4688 23.0338 22.9062 22.5963C23.3438 22.1588 23.875 21.94 24.5 21.94C25.125 21.94 25.6562 22.1588 26.0938 22.5963C26.5312 23.0338 26.75 23.565 26.75 24.19C26.75 24.815 26.5312 25.3463 26.0938 25.7838C25.6562 26.2213 25.125 26.44 24.5 26.44Z" fill="#15264B"/>
</svg>
