<svg width="21" height="22" viewBox="0 0 21 22" fill="none" xmlns="http://www.w3.org/2000/svg">
<path d="M16.25 11.6301H12.35C11.9844 11.6301 11.6763 11.7553 11.4258 12.0058C11.1753 12.2564 11.05 12.5644 11.05 12.9301V16.8301C11.05 17.1957 11.1753 17.5038 11.4258 17.7543C11.6763 18.0048 11.9844 18.1301 12.35 18.1301H16.25C16.6156 18.1301 16.9237 18.0048 17.1742 17.7543C17.4247 17.5038 17.55 17.1957 17.55 16.8301V12.9301C17.55 12.5644 17.4247 12.2564 17.1742 12.0058C16.9237 11.7553 16.6156 11.6301 16.25 11.6301ZM16.25 16.8301H12.35V12.9301H16.25V16.8301ZM8.45 3.83007H4.55C4.18437 3.83007 3.8763 3.95533 3.62578 4.20585C3.37526 4.45637 3.25 4.76444 3.25 5.13007V9.03007C3.25 9.39569 3.37526 9.70376 3.62578 9.95428C3.8763 10.2048 4.18437 10.3301 4.55 10.3301H8.45C8.81562 10.3301 9.1237 10.2048 9.37422 9.95428C9.62474 9.70376 9.75 9.39569 9.75 9.03007V5.13007C9.75 4.76444 9.62474 4.45637 9.37422 4.20585C9.1237 3.95533 8.81562 3.83007 8.45 3.83007ZM8.45 9.03007H4.55V5.13007H8.45V9.03007ZM16.25 3.83007H12.35C11.9844 3.83007 11.6763 3.95533 11.4258 4.20585C11.1753 4.45637 11.05 4.76444 11.05 5.13007V9.03007C11.05 9.39569 11.1753 9.70376 11.4258 9.95428C11.6763 10.2048 11.9844 10.3301 12.35 10.3301H16.25C16.6156 10.3301 16.9237 10.2048 17.1742 9.95428C17.4247 9.70376 17.55 9.39569 17.55 9.03007V5.13007C17.55 4.76444 17.4247 4.45637 17.1742 4.20585C16.9237 3.95533 16.6156 3.83007 16.25 3.83007ZM16.25 9.03007H12.35V5.13007H16.25V9.03007ZM8.45 11.6301H4.55C4.18437 11.6301 3.8763 11.7553 3.62578 12.0058C3.37526 12.2564 3.25 12.5644 3.25 12.9301V16.8301C3.25 17.1957 3.37526 17.5038 3.62578 17.7543C3.8763 18.0048 4.18437 18.1301 4.55 18.1301H8.45C8.81562 18.1301 9.1237 18.0048 9.37422 17.7543C9.62474 17.5038 9.75 17.1957 9.75 16.8301V12.9301C9.75 12.5644 9.62474 12.2564 9.37422 12.0058C9.1237 11.7553 8.81562 11.6301 8.45 11.6301ZM8.45 16.8301H4.55V12.9301H8.45V16.8301Z" fill="#48443D"/>
</svg>
