<svg width="26" height="28" viewBox="0 0 26 28" fill="none" xmlns="http://www.w3.org/2000/svg">
<g filter="url(#filter0_d_1_1440)">
<path d="M21.7688 14.375C21.7958 14.4156 21.8162 14.4664 21.8297 14.5274C21.8432 14.5883 21.85 14.6459 21.85 14.7C21.85 14.8219 21.8195 14.9302 21.7586 15.025C21.6977 15.1198 21.6198 15.2011 21.525 15.2688L13.725 19.8188C13.6844 19.8459 13.6336 19.8662 13.5727 19.8797C13.5117 19.8933 13.4542 19.9 13.4 19.9C13.3323 19.9 13.2714 19.8933 13.2172 19.8797C13.163 19.8662 13.1156 19.8459 13.075 19.8188L5.27501 15.2688C5.18022 15.2011 5.10236 15.1198 5.04142 15.025C4.98048 14.9302 4.95001 14.8219 4.95001 14.7C4.95001 14.524 5.01434 14.3716 5.14298 14.243C5.27163 14.1143 5.42397 14.05 5.60001 14.05C5.66772 14.05 5.72866 14.0568 5.78282 14.0703C5.83699 14.0839 5.88439 14.1042 5.92501 14.1313L13.4 18.4985L20.875 14.1313C20.9156 14.1042 20.9664 14.0839 21.0274 14.0703C21.0883 14.0568 21.1458 14.05 21.2 14.05C21.3219 14.05 21.4302 14.0805 21.525 14.1414C21.6198 14.2024 21.7011 14.2802 21.7688 14.375ZM20.875 10.2313L13.4 14.5985L5.92501 10.2313C5.88439 10.2177 5.84038 10.2042 5.79298 10.1906C5.74559 10.1771 5.6948 10.1703 5.64064 10.1703C5.45105 10.1703 5.29532 10.2347 5.17345 10.3633C5.05157 10.492 4.99064 10.6443 4.99064 10.8203C4.99064 10.9287 5.01434 11.0302 5.06173 11.125C5.10913 11.2198 5.18022 11.3011 5.27501 11.3688L13.075 15.9188C13.1156 15.9459 13.1664 15.9662 13.2274 15.9797C13.2883 15.9933 13.3458 16 13.4 16C13.4677 16 13.5287 15.9933 13.5828 15.9797C13.637 15.9662 13.6844 15.9459 13.725 15.9188L21.525 11.3688C21.6333 11.3011 21.7146 11.2198 21.7688 11.125C21.8229 11.0302 21.85 10.9219 21.85 10.8C21.85 10.624 21.7891 10.4716 21.6672 10.343C21.5453 10.2143 21.3896 10.15 21.2 10.15C21.1458 10.15 21.0883 10.1568 21.0274 10.1703C20.9664 10.1839 20.9156 10.2042 20.875 10.2313ZM4.95001 6.90002C4.95001 6.77815 4.98048 6.66982 5.04142 6.57502C5.10236 6.48023 5.18022 6.39898 5.27501 6.33127L13.075 1.78127C13.1156 1.75419 13.1664 1.73388 13.2274 1.72034C13.2883 1.7068 13.3458 1.70003 13.4 1.70003C13.4677 1.70003 13.5287 1.7068 13.5828 1.72034C13.637 1.73388 13.6844 1.75419 13.725 1.78127L21.525 6.33127C21.6198 6.39898 21.6977 6.48023 21.7586 6.57502C21.8195 6.66982 21.85 6.77815 21.85 6.90002C21.85 7.0219 21.8195 7.13023 21.7586 7.22503C21.6977 7.31982 21.6198 7.40107 21.525 7.46877L13.725 12.0188C13.6844 12.0459 13.637 12.0662 13.5828 12.0797C13.5287 12.0933 13.4677 12.1 13.4 12.1C13.3458 12.1 13.2883 12.0933 13.2274 12.0797C13.1664 12.0662 13.1156 12.0459 13.075 12.0188L5.27501 7.46877C5.18022 7.40107 5.10236 7.31982 5.04142 7.22503C4.98048 7.13023 4.95001 7.0219 4.95001 6.90002ZM6.90001 6.90002L13.4 10.6985L19.9 6.90002L13.4 3.10159L6.90001 6.90002Z" fill="#48443D"/>
</g>
<defs>
<filter id="filter0_d_1_1440" x="-1" y="0.300049" width="28.8" height="29" filterUnits="userSpaceOnUse" color-interpolation-filters="sRGB">
<feFlood flood-opacity="0" result="BackgroundImageFix"/>
<feColorMatrix in="SourceAlpha" type="matrix" values="0 0 0 0 0 0 0 0 0 0 0 0 0 0 0 0 0 0 127 0" result="hardAlpha"/>
<feOffset dy="4"/>
<feGaussianBlur stdDeviation="2"/>
<feComposite in2="hardAlpha" operator="out"/>
<feColorMatrix type="matrix" values="0 0 0 0 0 0 0 0 0 0 0 0 0 0 0 0 0 0 0.25 0"/>
<feBlend mode="normal" in2="BackgroundImageFix" result="effect1_dropShadow_1_1440"/>
<feBlend mode="normal" in="SourceGraphic" in2="effect1_dropShadow_1_1440" result="shape"/>
</filter>
</defs>
</svg>
