<svg width="20" height="20" viewBox="0 0 20 20" fill="none" xmlns="http://www.w3.org/2000/svg">
<path d="M16.2787 7.4137L12.5527 3.73151L13.7801 2.50411C14.1161 2.16804 14.5291 2 15.0189 2C15.5081 2 15.9207 2.16804 16.2568 2.50411L17.4842 3.73151C17.8202 4.06758 17.9956 4.47321 18.0102 4.94838C18.0248 5.42298 17.8641 5.82831 17.528 6.16438L16.2787 7.4137ZM2.86499 18C2.61659 18 2.40852 17.9158 2.24077 17.7475C2.07245 17.5798 1.98828 17.3717 1.98828 17.1233V14.6466C1.98828 14.5297 2.0102 14.4166 2.05403 14.3073C2.09787 14.1974 2.16362 14.0986 2.25129 14.011L11.2814 4.98082L15.0075 8.70685L5.97732 17.737C5.88965 17.8247 5.79117 17.8904 5.68187 17.9342C5.57199 17.9781 5.4586 18 5.34171 18H2.86499Z" fill="#FFFFF9"/>
</svg>
